<?xml version="1.0" encoding="UTF-8"?>
<svg version="1.1" xmlns="http://www.w3.org/2000/svg" width="1024" height="1024">
<path d="M0 0 C337.92 0 675.84 0 1024 0 C1024 337.92 1024 675.84 1024 1024 C686.08 1024 348.16 1024 0 1024 C0 686.08 0 348.16 0 0 Z " fill="#5F35B1" transform="translate(0,0)"/>
<path d="M0 0 C337.92 0 675.84 0 1024 0 C1024 337.92 1024 675.84 1024 1024 C686.08 1024 348.16 1024 0 1024 C0 686.08 0 348.16 0 0 Z M98.40625 114.84375 C96.18234109 117.50617616 94.07334128 120.21887617 92 123 C91.60506348 123.51997559 91.21012695 124.03995117 90.80322266 124.57568359 C73.36122564 147.62087965 62.22057388 173.6125759 56.6875 201.9375 C56.44821777 203.1601355 56.44821777 203.1601355 56.20410156 204.4074707 C53.56871168 218.89775184 53.85311279 233.51822539 53.85955811 248.18634033 C53.85697133 250.54737863 53.8539573 252.9084165 53.8505547 255.26945376 C53.84335897 261.05972315 53.84078387 266.8499815 53.84022565 272.64025503 C53.83930768 279.58219083 53.83262735 286.52411822 53.82587883 293.46605038 C53.80986047 310.23998507 53.80392017 327.0139188 53.79913008 343.78785977 C53.79678983 351.73201495 53.7931867 359.67616941 53.7894347 367.62032403 C53.77660253 394.84465634 53.76588335 422.06898825 53.7624321 449.29332352 C53.76221047 451.00055911 53.76198869 452.7077947 53.76176675 454.41503029 C53.76154611 456.12625085 53.76132563 457.83747142 53.7611053 459.54869199 C53.76066276 462.98135456 53.76021564 466.41401712 53.75976562 469.84667969 C53.75965623 470.6977729 53.75954684 471.5488661 53.75943414 472.42575001 C53.75580589 500.00417663 53.73989288 527.58257692 53.71657526 555.16099346 C53.69193464 584.35785899 53.67825729 613.55470949 53.67706418 642.75158572 C53.67689274 645.96165642 53.67667732 649.1717271 53.67642975 652.38179779 C53.67637398 653.17213609 53.67631821 653.96247438 53.67626075 654.77676232 C53.67511397 667.45125703 53.66412383 680.12572455 53.64954269 692.8002101 C53.63511889 705.55934871 53.63197372 718.31845276 53.63998267 731.07759729 C53.6440243 737.97887431 53.64343649 744.88006862 53.62892532 751.78133392 C53.61609464 758.11555698 53.61746356 764.44962191 53.62951604 770.78384504 C53.63145728 773.05912326 53.62846868 775.33441304 53.61967167 777.60967508 C53.42459812 831.53569735 69.46437174 878.71308843 107 918 C107.53568604 918.56122559 108.07137207 919.12245117 108.62329102 919.70068359 C137.939301 949.75797989 183.88364216 969.54231759 225.84054887 970.1276505 C227.61865589 970.13394127 229.3967872 970.1348934 231.17490196 970.13142776 C232.16560446 970.1334804 233.15630696 970.13553303 234.17703074 970.13764787 C237.49314501 970.14329741 240.80921748 970.14186314 244.12533569 970.14044189 C246.52844593 970.14302671 248.93155573 970.14604019 251.33466494 970.1494453 C257.24432593 970.15666032 263.15397853 970.15921726 269.0636429 970.15977435 C276.1449658 970.16069012 283.2262804 970.16736401 290.30759971 970.17412117 C307.42133723 970.19016216 324.53507382 970.19608243 341.6488175 970.20086992 C349.74950266 970.20320792 357.85018711 970.20681081 365.95087172 970.2105653 C393.69630874 970.22339954 421.44174537 970.2341185 449.18718529 970.2375679 C450.92808347 970.23778953 452.66898166 970.23801132 454.40987984 970.23823325 C456.15491317 970.23845389 457.8999465 970.23867437 459.64497983 970.2388947 C463.14564411 970.23933725 466.64630838 970.23978436 470.14697266 970.24023438 C471.01493039 970.24034377 471.88288812 970.24045316 472.77714761 970.24056586 C500.90926295 970.24419503 529.0413525 970.26011045 557.17345796 970.28342474 C586.93667533 970.30804556 616.69987796 970.3217418 646.4631058 970.32293582 C649.7332329 970.32310726 653.00335999 970.32332269 656.27348709 970.32357025 C657.4812276 970.3236539 657.4812276 970.3236539 658.71336691 970.32373925 C671.64590009 970.32488777 684.5784067 970.33589286 697.51093092 970.35045731 C710.52138021 970.36485562 723.53179561 970.36804052 736.54225068 970.36001733 C744.2612676 970.35557667 751.98017479 970.35935868 759.6991772 970.37525584 C765.4786221 970.38622099 771.25797013 970.38131582 777.03741129 970.37048396 C779.36384596 970.36853324 781.69029178 970.37157624 784.0167108 970.38032833 C801.04938012 970.44031093 817.32093728 969.05430331 833.875 964.8125 C835.09497681 964.50058716 835.09497681 964.50058716 836.33959961 964.18237305 C881.65698227 952.07897271 921.26301132 922.51531931 945 882 C961.23668472 853.72025647 970.20393572 821.52983326 970.12863445 788.82419586 C970.13038749 787.84554691 970.13214053 786.86689796 970.13394669 785.85859299 C970.13858702 782.58951151 970.13614626 779.32047489 970.13371277 776.0513916 C970.13558174 773.67970414 970.13788278 771.30801699 970.14057809 768.93633032 C970.14541614 763.78487009 970.14715176 758.63341848 970.14612198 753.48195648 C970.14459431 745.82102075 970.14876492 738.16009538 970.1539966 730.49916167 C970.16365982 716.01788146 970.16648048 701.5366048 970.16705366 687.05532175 C970.16751354 675.86864223 970.16957365 664.6819641 970.17275429 653.49528503 C970.17365186 650.27292299 970.17454168 647.05056095 970.17542917 643.82819891 C970.17565021 643.0270583 970.17587126 642.22591769 970.17609901 641.40050009 C970.18225209 618.86969438 970.18619969 596.33888916 970.18575573 573.80808258 C970.18574015 572.95886916 970.18572457 572.10965575 970.18570852 571.23470859 C970.18562542 566.93074779 970.18552638 562.626787 970.18542381 558.32282621 C970.18540387 557.46807791 970.18538392 556.61332961 970.18536337 555.73267985 C970.18532294 554.00416978 970.18528114 552.27565972 970.18523798 550.54714965 C970.18462548 523.66554227 970.19212759 496.78394752 970.20581055 469.90234375 C970.22118524 439.6848517 970.22977591 409.46736794 970.22884732 379.24987173 C970.2287727 376.02499485 970.22872399 372.80011797 970.22869301 369.57524109 C970.22868135 368.78122503 970.2286697 367.98720897 970.22865769 367.16913182 C970.22862697 354.41406132 970.23500173 341.65900182 970.24362527 328.90393459 C970.25211974 316.0739825 970.25307771 303.24404643 970.24651595 290.41409308 C970.24315515 283.46916647 970.24291669 276.52427602 970.2518692 269.57935333 C970.25975074 263.21333136 970.25828583 256.84738041 970.24958507 250.48136014 C970.24805372 248.18660265 970.24985239 245.89183982 970.25544515 243.59708863 C970.2921091 227.47726332 969.76973417 211.50009564 966.3125 195.6875 C966.06040771 194.52903564 966.06040771 194.52903564 965.80322266 193.34716797 C958.95932796 163.41037708 944.15663205 130.07669504 921 109 C920.34 109 919.68 109 919 109 C919 108.34 919 107.68 919 107 C916.53999231 104.45316851 913.70973267 102.27566974 911 100 C910.14019531 99.24203125 909.28039062 98.4840625 908.39453125 97.703125 C870.71877446 65.06812464 824.79947531 53.65042466 775.96478271 53.73930359 C773.58476557 53.73627712 771.2047494 53.73238517 768.82473493 53.72771102 C763.01086588 53.71855342 757.19704917 53.71856085 751.38317553 53.72262264 C744.40826703 53.72697722 737.43338223 53.71966498 730.45847817 53.71213136 C716.0019199 53.69694424 701.54537923 53.69518082 687.08881465 53.69765439 C675.92050777 53.6994917 664.75220661 53.69771828 653.58390045 53.69342995 C651.97564944 53.69282753 650.36739843 53.69222633 648.75914742 53.69162634 C646.33525205 53.69071903 643.91135669 53.68981035 641.48746132 53.68889399 C618.97057713 53.68047245 596.45369509 53.67612325 573.93680954 53.68030071 C573.0891335 53.68045709 572.24145746 53.68061346 571.36809426 53.68077458 C567.07237416 53.68158028 562.77665408 53.68242606 558.48093399 53.68328788 C557.20136771 53.68354451 557.20136771 53.68354451 555.8959516 53.68380633 C554.17089211 53.68415299 552.44583262 53.68450152 550.72077313 53.68485192 C523.88463654 53.69020794 497.04853281 53.68227878 470.21240234 53.66381836 C440.01603533 53.64307045 409.81968868 53.63238092 379.62331414 53.63639385 C376.3993303 53.63678915 373.17534646 53.6371507 369.95136261 53.63749123 C369.15761902 53.63758196 368.36387543 53.63767269 367.546079 53.63776617 C355.60041033 53.63892872 343.65476233 53.63231004 331.70909882 53.62167931 C318.11265482 53.60959136 304.51625612 53.6081096 290.9198114 53.62046947 C283.99038931 53.62648795 277.06104773 53.62789999 270.13163185 53.61546707 C263.77431054 53.60455425 257.41715082 53.60777545 251.05983689 53.62172876 C248.77400811 53.62436087 246.48816643 53.62205654 244.20235035 53.61399289 C188.34723447 53.43080815 136.47946691 73.10082544 98.40625 114.84375 Z " fill="#FEFEFE" transform="translate(0,0)"/>
<path d="M0 0 C2.38213586 2.08651389 4.70153596 4.23292844 7.00683594 6.40380859 C9.09930486 8.36257343 11.23946545 10.18685026 13.45214844 12.00537109 C28.0912209 24.82202842 38.4487706 42.18382025 46.45214844 59.69287109 C46.98582031 60.83626953 47.51949219 61.97966797 48.06933594 63.15771484 C62.08418127 95.43542858 64.002573 134.93914977 54.45214844 168.69287109 C54.21109375 169.55686523 53.97003906 170.42085937 53.72167969 171.31103516 C47.85414267 191.54472433 37.60553495 210.30292295 24.45214844 226.69287109 C29.10782286 232.29093761 34.08242008 237.44239162 39.25561523 242.56225586 C40.1197403 243.42170807 40.98386536 244.28116028 41.87417603 245.16665649 C43.74082901 247.02284949 45.60834254 248.87812896 47.47727013 250.73202705 C50.43526918 253.66679696 53.38824474 256.60658712 56.34028625 259.54734802 C64.73074864 267.90450907 73.12545262 276.25737716 81.53051758 284.59985352 C86.18257644 289.21735456 90.82922973 293.84022423 95.46997195 298.46909946 C98.40024545 301.39129722 101.33695283 304.30681738 104.27862012 307.21754277 C106.53745033 309.45655839 108.78639287 311.70546954 111.03686523 313.95288086 C111.84886887 314.75252762 112.6608725 315.55217438 113.4974823 316.37605286 C119.20194732 322.10104864 122.87090388 326.67937053 122.95214844 335.06787109 C122.80506949 341.21016801 121.5644307 345.12992776 117.45214844 349.69287109 C112.88568604 354.03101037 108.43980094 355.97669667 102.13964844 356.06787109 C101.25664063 356.09623047 100.37363281 356.12458984 99.46386719 356.15380859 C90.48579234 354.77973229 84.9187756 348.71558305 78.82324219 342.51806641 C77.89548477 341.5908931 76.96772736 340.66371979 76.01185608 339.70845032 C73.48478292 337.18251836 70.970179 334.64450192 68.45773315 332.10403156 C65.82376514 329.44495024 63.17836046 326.79729542 60.53417969 324.14837646 C55.53626144 319.13805752 50.54862195 314.11763591 45.56464958 309.0934484 C39.88691462 303.37090505 34.19773068 297.65980199 28.50758553 291.9496026 C16.80970855 280.20998719 5.12619838 268.45618178 -6.54785156 256.69287109 C-7.29994904 257.17321304 -8.05204651 257.65355499 -8.82693481 258.14845276 C-10.30938187 259.0938517 -10.30938187 259.0938517 -11.82177734 260.05834961 C-13.29023605 260.99542503 -13.29023605 260.99542503 -14.7883606 261.95143127 C-48.10939942 282.97943409 -91.21253956 292.85307928 -130.15722656 284.73193359 C-144.54692617 281.4208545 -158.28293831 277.21857478 -171.54785156 270.69287109 C-172.17884766 270.38623535 -172.80984375 270.07959961 -173.45996094 269.76367188 C-188.03422667 262.59910547 -200.42821465 253.41302745 -212.06787109 242.12597656 C-213.44391436 240.79351632 -214.83703246 239.47875168 -216.23144531 238.16552734 C-244.80407327 210.66270137 -261.64384775 169.67063342 -262.75097656 130.29052734 C-263.37600839 86.13479786 -247.61623384 45.48161881 -217.23925781 13.41943359 C-160.44330327 -44.11841295 -63.20335992 -53.37394149 0 0 Z " fill="#FEFEFE" transform="translate(581.5478515625,195.30712890625)"/>
<path d="M0 0 C18.15 0 36.3 0 55 0 C55.96035156 4.30675781 56.92070312 8.61351562 57.91015625 13.05078125 C61.80897273 30.39176677 65.9739021 47.66568611 70.16442871 64.93807983 C72.35996258 73.98831283 74.54606024 83.04082617 76.73046875 92.09375 C76.95083927 93.0068865 77.17120979 93.920023 77.39825821 94.86083031 C82.08453178 114.28683188 86.68415334 133.73288068 91.25 153.1875 C91.42467175 153.93165035 91.59934349 154.6758007 91.77930832 155.44250107 C93.85677731 164.29408715 95.93068293 173.14650427 98 182 C100.16996743 178.74504886 100.9941053 176.06462921 102.08447266 172.31201172 C102.28372754 171.63141064 102.48298243 170.95080956 102.68827534 170.2495842 C103.35192562 167.9777243 104.00804184 165.70376123 104.6640625 163.4296875 C105.13279083 161.81843828 105.60192055 160.20730579 106.07142639 158.59628296 C107.33378976 154.25900265 108.58922174 149.91974489 109.84298325 145.57997131 C110.62515847 142.87445184 111.40924283 140.16949322 112.19400024 137.46472168 C121.00714614 107.08752215 129.64224554 76.66364183 138.11273193 46.18902588 C139.88455158 39.82073775 141.66480036 33.45480228 143.4440155 27.08857727 C145.96684081 18.0602051 148.48293011 9.02998824 151 0 C166.18 0 181.36 0 197 0 C200.37450024 10.12350071 200.37450024 10.12350071 201.28344727 13.7331543 C201.59572266 14.96208908 201.59572266 14.96208908 201.91430664 16.21585083 C202.12949951 17.07661224 202.34469238 17.93737366 202.56640625 18.82421875 C202.80085449 19.74975555 203.03530273 20.67529236 203.27685547 21.62887573 C203.77928161 23.61300907 204.28031186 25.59749632 204.78005981 27.58230591 C206.12610405 32.92422044 207.48574638 38.26267815 208.84375 43.6015625 C209.25289391 45.21149834 209.25289391 45.21149834 209.67030334 46.85395813 C217.5358448 77.78622392 225.9271722 108.57693396 234.31274414 139.37133789 C235.11101984 142.30349921 235.90911709 145.23570903 236.70703125 148.16796875 C236.89876986 148.87256037 237.09050846 149.57715199 237.28805733 150.30309486 C240.2486611 161.18731284 243.16440757 172.08247515 246 183 C248.4830746 175.90543457 250.40239957 168.7636197 252.1875 161.46484375 C252.48643661 160.25368393 252.78537323 159.04252411 253.09336853 157.79466248 C253.89947546 154.52221518 254.70190184 151.2489173 255.50187302 147.97496796 C256.00286192 145.92579401 256.50518485 143.87695111 257.00784302 141.82818604 C262.84565792 118.02321371 268.4225718 94.16410499 273.81396484 70.25390625 C275.44682781 63.0135683 277.09974908 55.77782868 278.75442505 48.54244995 C279.23902034 46.4230207 279.72295153 44.30344068 280.20678711 42.18383789 C283.42151696 28.11088778 286.70899817 14.05532032 290 0 C307.49 0 324.98 0 343 0 C341.87519136 8.99846914 341.87519136 8.99846914 340.85180664 13.01513672 C340.50931885 14.37508003 340.50931885 14.37508003 340.15991211 15.76249695 C339.91249268 16.72516983 339.66507324 17.68784271 339.41015625 18.6796875 C339.15041016 19.70749832 338.89066406 20.73530914 338.62304688 21.79426575 C338.06460191 24.00317412 337.50416551 26.21157981 336.94192505 28.41952515 C335.43962588 34.32242389 333.95405359 40.22952436 332.46875 46.13671875 C332.1695314 47.32592422 331.87031281 48.5151297 331.56202698 49.7403717 C328.97756277 60.03654004 326.49710998 70.35503421 324.0625 80.6875 C314.84834102 119.72149846 305.12906704 158.63539167 295.3722229 197.53674316 C292.69063735 208.22935608 290.01770842 218.92413044 287.34472656 229.61889648 C284.56366511 240.74605949 281.78174786 251.87300858 279 263 C260.19 263 241.38 263 222 263 C220.94425781 259.10574219 219.88851562 255.21148438 218.80078125 251.19921875 C217.30634293 245.694862 215.80993259 240.1910428 214.3125 234.6875 C214.1153603 233.96294239 213.9182206 233.23838478 213.71510696 232.49187088 C206.06025642 204.36573955 198.24089315 176.28717025 190.34692383 148.22729492 C186.36082794 134.05549397 182.3872777 119.88017257 178.48724556 105.68440437 C178.08509299 104.22229239 177.68167608 102.76052752 177.27692986 101.29913139 C176.72066391 99.28905198 176.16933563 97.27768407 175.61938477 95.26586914 C175.14868309 93.55398155 175.14868309 93.55398155 174.66847229 91.80751038 C174 89 174 89 174 86 C173.34 86 172.68 86 172 86 C171.90388428 87.07443359 171.80776855 88.14886719 171.70874023 89.25585938 C170.98533324 94.97929222 169.30285379 100.38978413 167.66015625 105.90625 C167.13537437 107.69579857 167.13537437 107.69579857 166.59999084 109.52149963 C165.63067662 112.82205393 164.6557949 116.12086648 163.67838287 119.41902542 C162.63590402 122.94140294 161.60039962 126.46583059 160.56396484 129.98999023 C158.73298757 136.21188859 156.89700811 142.43229517 155.05810547 148.65185547 C152.62251256 156.88966813 150.19275523 165.12918947 147.76507473 173.36933708 C144.84244775 183.28939676 141.91739767 193.2087405 138.99088669 203.12765503 C138.41478685 205.08029358 137.8387495 207.03295057 137.26277542 208.98562622 C135.60455411 214.60710831 133.94494411 220.22817695 132.28329277 225.84864616 C131.7768251 227.56239223 131.27077064 229.27626049 130.7651844 230.9902668 C130.06227568 233.37285791 129.35773682 235.75496168 128.65283203 238.13696289 C128.35983263 239.13200459 128.35983263 239.13200459 128.06091404 240.14714813 C125.79409835 247.79344808 123.37970638 255.38493958 121 263 C103.18 263 85.36 263 67 263 C60.11850004 238.91475014 60.11850004 238.91475014 57.6171875 228.7265625 C57.32554214 227.55282074 57.03389679 226.37907898 56.7334137 225.16976929 C55.94349909 221.98957612 55.15660736 218.80865194 54.37055588 215.62750244 C52.96966395 209.966608 51.55695388 204.30863879 50.14691734 198.65001678 C49.58522048 196.39550586 49.02388489 194.1409052 48.46260071 191.8862915 C44.15377007 174.58257288 39.80591727 157.2887651 35.4375 140 C35.23397919 139.19406151 35.03045837 138.38812302 34.82077026 137.55776215 C29.5311869 116.61389773 24.15765369 95.6933151 18.68359375 74.796875 C18.41950903 73.78848068 18.15542431 72.78008636 17.88333702 71.74113464 C15.29104994 61.84499303 12.69333956 51.95031097 10.08116627 42.05939865 C9.11905439 38.41393773 8.16004303 34.76766521 7.20153999 31.12125397 C6.75669854 29.43243778 6.3103327 27.74402223 5.86228752 26.05605316 C5.24473789 23.72942945 4.63235668 21.40149862 4.02099609 19.07324219 C3.84449241 18.41384644 3.66798872 17.75445068 3.48613644 17.07507324 C2.00347072 11.39328426 1.06086325 5.83474787 0 0 Z " fill="#FEFEFE" transform="translate(402,587)"/>
<path d="M0 0 C1.24910156 0.25652344 2.49820313 0.51304687 3.78515625 0.77734375 C25.27782375 5.48716481 43.86375564 16.24255356 60 31 C60.81082031 31.72832031 61.62164063 32.45664063 62.45703125 33.20703125 C73.49812151 43.62935638 80.75946532 56.32825194 87 70 C87.40992188 70.87011719 87.81984375 71.74023438 88.2421875 72.63671875 C99.97098547 99.41292808 98.41627056 132.53511617 88.04980469 159.46875 C75.90703795 188.67608998 53.42592959 212.11509491 24.22729492 224.625 C-4.56024009 236.28116285 -36.07272071 237.9479014 -65 226 C-79.24194478 219.77389993 -91.7502314 211.78974089 -103 201 C-103.845625 200.195625 -104.69125 199.39125 -105.5625 198.5625 C-106.366875 197.716875 -107.17125 196.87125 -108 196 C-108.99773437 194.97712891 -108.99773437 194.97712891 -110.015625 193.93359375 C-122.85843407 180.32633176 -131.31985617 163.02722068 -136 145 C-136.2990625 143.96875 -136.598125 142.9375 -136.90625 141.875 C-141.2666688 124.4333248 -141.13508586 103.24809081 -136 86 C-135.48953125 84.18822266 -135.48953125 84.18822266 -134.96875 82.33984375 C-125.46509633 51.29243464 -104.48538856 26.46933781 -76 11 C-52.39228016 -0.69302556 -25.97339946 -5.56345766 0 0 Z " fill="#5F35B1" transform="translate(502,205)"/>
<path d="M0 0 C18.15 0 36.3 0 55 0 C55 86.79 55 173.58 55 263 C36.85 263 18.7 263 0 263 C0 176.21 0 89.42 0 0 Z " fill="#FEFEFE" transform="translate(315,587)"/>
<path d="M0 0 C0.66 0 1.32 0 2 0 C3.01115142 1.65992487 4.00899352 3.32797011 5 5 C6.41174333 6.54392904 7.87279514 8.04393795 9.375 9.5 C10.50035156 10.59828125 10.50035156 10.59828125 11.6484375 11.71875 C12.81246094 12.84796875 12.81246094 12.84796875 14 14 C15.66845406 15.66490668 17.33460494 17.33203699 19 19 C20.41722015 20.41741526 21.83454918 21.83472166 23.25195312 23.25195312 C34.08398438 34.08398438 44.91601562 44.91601562 55.74804688 55.74804688 C56.49368896 56.49296387 57.23933105 57.23788086 58.00756836 58.00537109 C59.20149553 59.20061494 60.39318728 60.39810744 61.58032227 61.60009766 C63.64923508 63.69326006 65.70792939 65.57519263 68 67.4375 C71.07903881 70.06751232 73.45078401 72.8625034 76 76 C78.71778582 78.86082718 81.53914808 81.47301929 84.5625 84 C87.44027803 86.42929314 89.7095721 88.99874965 92 92 C92.721875 92.680625 93.44375 93.36125 94.1875 94.0625 C96.09124975 96.09754283 96.61164058 97.28148409 97 100 C64.33333333 67.33333333 31.66666667 34.66666667 -1 2 C-0.67 1.34 -0.34 0.68 0 0 Z " fill="#592FAC" transform="translate(606,421)"/>
<path d="M0 0 C18.81 0 37.62 0 57 0 C57.495 2.475 57.495 2.475 58 5 C57.505 3.515 57.505 3.515 57 2 C38.85 2 20.7 2 2 2 C1.67 3.32 1.34 4.64 1 6 C0.67 4.02 0.34 2.04 0 0 Z " fill="#5A2EAD" transform="translate(400,585)"/>
<path d="M0 0 C0.66 0.66 1.32 1.32 2 2 C2.99 2 3.98 2 5 2 C4.25 8.625 4.25 8.625 2 12 C0.70756464 7.8803623 -0.26252625 4.33168317 0 0 Z " fill="#4E24A9" transform="translate(498,760)"/>
<path d="M0 0 C1.45606519 4.52092968 0.27032841 7.51648796 -1 12 C-3.56616632 8.15075052 -3.55097676 5.5650696 -4 1 C-2.68 1.33 -1.36 1.66 0 2 C0 1.34 0 0.68 0 0 Z " fill="#4B21A7" transform="translate(650,761)"/>
<path d="M0 0 C0.33 0.99 0.66 1.98 1 3 C-1.31 5.31 -3.62 7.62 -6 10 C-6.66 9.67 -7.32 9.34 -8 9 C-5.36 6.03 -2.72 3.06 0 0 Z " fill="#5023A9" transform="translate(394,241)"/>
<path d="M0 0 C0.66 0.66 1.32 1.32 2 2 C-0.97 4.475 -0.97 4.475 -4 7 C-4.66 6.67 -5.32 6.34 -6 6 C-4.02 4.02 -2.04 2.04 0 0 Z " fill="#4E20A8" transform="translate(701,542)"/>
</svg>
